<?xml version="1.0" standalone="no"?>
<!DOCTYPE svg PUBLIC "-//W3C//DTD SVG 20010904//EN"
 "http://www.w3.org/TR/2001/REC-SVG-20010904/DTD/svg10.dtd">
<svg version="1.0" xmlns="http://www.w3.org/2000/svg"
 width="1300.000000pt" height="839.000000pt" viewBox="0 0 1300.000000 839.000000"
 preserveAspectRatio="xMidYMid meet">
<metadata>
Created by potrace 1.16, written by Peter Selinger 2001-2019
</metadata>
<g transform="translate(0.000000,839.000000) scale(0.100000,-0.100000)"
fill="#000000" stroke="none">
<path d="M595 7857 c458 -143 777 -279 936 -399 197 -148 370 -358 419 -508
32 -97 35 -285 7 -396 -10 -38 -19 -77 -21 -85 -5 -24 -38 -101 -78 -178 -21
-41 -37 -75 -35 -76 1 -1 81 -14 178 -28 257 -39 386 -76 542 -153 109 -55
173 -102 258 -190 78 -83 113 -133 166 -239 36 -71 89 -212 98 -261 2 -11 4
-19 5 -19 1 0 3 -9 4 -20 2 -11 8 -54 14 -95 31 -213 23 -319 -35 -490 -48
-142 -111 -270 -176 -360 -30 -41 -54 -76 -52 -78 2 -2 27 4 56 12 257 75 648
1 835 -156 177 -149 289 -372 309 -618 15 -193 -48 -437 -160 -619 l-27 -43
58 37 c121 78 154 97 268 150 134 64 257 95 383 95 101 0 166 -20 215 -67 45
-44 51 -60 134 -370 38 -139 71 -253 74 -253 4 0 14 26 24 58 10 31 40 103 66
158 88 187 194 266 275 203 16 -13 30 -18 33 -12 4 5 23 34 42 64 98 154 226
296 329 365 103 69 177 97 269 102 53 3 83 1 81 -5 -5 -13 -115 -113 -159
-144 -19 -13 -59 -39 -90 -57 l-55 -33 38 5 c20 3 54 9 75 12 l37 5 -30 -26
c-54 -47 -207 -137 -350 -206 l-140 -68 53 -1 c28 0 52 -3 52 -7 0 -5 -19 -21
-41 -38 -107 -78 -244 -261 -305 -406 -19 -44 -34 -83 -34 -87 0 -3 26 19 58
49 54 53 113 99 126 99 4 0 -4 -21 -18 -47 -60 -120 -104 -297 -112 -458 l-6
-110 32 47 c17 27 35 50 40 53 4 2 10 -64 13 -148 4 -108 11 -173 25 -226 24
-85 74 -211 84 -211 4 0 8 30 10 68 l3 67 33 -95 c38 -108 122 -284 181 -380
44 -71 49 -69 26 6 -26 85 -17 82 49 -18 35 -53 79 -116 97 -140 65 -85 153
-188 160 -188 4 0 -4 26 -17 57 -12 32 -21 59 -19 62 3 2 29 -19 59 -47 97
-92 254 -181 434 -246 87 -31 106 -32 72 -5 -74 61 -93 80 -88 85 3 3 32 -2
64 -10 98 -24 197 -36 309 -36 108 0 245 17 245 30 0 4 -21 11 -46 15 -25 3
-43 9 -40 12 3 4 43 18 88 33 116 38 220 90 310 157 43 32 78 61 78 64 0 4
-17 3 -37 -2 -21 -5 -53 -9 -71 -9 l-34 0 48 53 c101 112 155 224 194 402 12
55 24 111 27 125 4 20 8 12 18 -36 15 -68 60 -203 73 -216 4 -4 4 24 -1 64
-11 100 -14 382 -3 443 l8 50 17 -42 16 -42 23 90 c52 215 181 394 377 521 67
44 52 42 -80 -9 -130 -51 -299 -141 -449 -241 -129 -85 -144 -106 -60 -83 21
6 39 9 41 8 1 -2 -37 -31 -85 -65 -79 -55 -223 -191 -285 -267 -34 -43 -101
-144 -122 -184 -16 -31 -11 -29 58 31 80 70 272 218 282 218 9 0 -3 -36 -36
-108 -164 -359 -435 -573 -729 -575 -63 0 -115 5 -155 17 -153 45 -301 158
-359 275 -90 179 -144 383 -153 581 -5 96 -2 129 15 197 20 80 90 245 108 256
7 4 166 -30 182 -39 2 -1 -3 -15 -11 -31 -8 -15 -15 -59 -16 -98 -2 -82 -15
-138 -36 -155 -10 -8 -29 -10 -58 -6 -120 19 -124 19 -146 -3 -21 -21 -28 -71
-14 -106 5 -14 9 -10 17 16 15 46 54 51 98 14 18 -15 57 -38 87 -52 70 -30
104 -63 143 -135 27 -51 36 -59 78 -73 62 -21 85 -46 85 -97 0 -30 -6 -45 -24
-59 -27 -22 -14 -25 33 -5 45 19 66 52 66 102 0 31 -7 51 -26 73 -32 38 -17
41 18 4 36 -39 48 -66 48 -107 0 -47 15 -46 30 1 21 70 21 70 40 29 l18 -39 7
33 c10 45 -3 118 -28 164 -16 27 -38 46 -78 67 -31 15 -76 41 -100 57 -24 15
-61 37 -82 47 -68 35 -76 48 -66 97 6 23 25 77 44 119 18 42 37 98 41 125 4
27 13 58 20 69 8 11 14 23 14 28 0 4 -27 36 -61 70 l-60 62 133 7 c87 4 164
15 225 30 l91 24 6 -39 c4 -21 25 -67 47 -102 22 -35 43 -79 46 -98 5 -32 2
-37 -33 -61 -21 -14 -45 -26 -54 -26 -8 0 -30 -9 -47 -20 -27 -16 -33 -26 -33
-53 0 -37 20 -71 53 -88 21 -12 21 -12 4 15 -14 20 -15 31 -7 47 15 27 49 39
80 27 16 -6 46 -5 87 2 77 15 121 7 194 -33 56 -31 58 -31 118 -19 53 11 64
11 85 -3 29 -19 50 -67 43 -95 -8 -31 11 -24 34 12 16 27 19 43 15 85 -7 63 7
76 34 31 l20 -33 0 32 c0 17 -4 43 -10 57 -12 32 -7 32 32 5 l30 -22 -7 24
c-16 50 -82 121 -131 139 -12 5 -93 5 -180 0 -87 -5 -168 -7 -181 -4 -27 7
-48 60 -63 164 -6 41 -22 99 -36 129 -13 30 -22 62 -19 72 12 36 -33 50 -179
56 -75 3 -136 10 -136 14 0 5 4 9 9 9 11 0 266 153 356 213 105 71 188 138
266 214 l76 74 62 -52 c78 -65 185 -195 253 -305 l51 -84 27 25 c18 17 37 25
61 25 91 0 187 -127 270 -357 18 -51 34 -91 35 -90 4 3 80 280 115 417 16 63
39 134 50 157 42 87 122 123 269 123 180 0 388 -79 633 -242 32 -21 60 -38 63
-38 2 0 -13 26 -33 57 -90 141 -142 311 -150 488 -9 199 28 355 124 518 67
114 196 243 286 286 226 108 491 143 700 92 49 -11 90 -21 92 -21 2 0 -18 29
-45 65 -68 89 -111 171 -164 305 -55 141 -76 242 -76 358 0 341 133 685 337
872 71 66 171 131 266 175 67 31 246 89 308 100 98 17 273 45 322 51 31 3 57
8 57 10 0 2 -14 25 -30 51 -37 58 -81 171 -111 283 -17 64 -22 113 -22 200 0
140 26 229 99 347 56 90 251 292 357 370 160 117 563 283 987 407 l85 25 -98
0 c-250 2 -666 -65 -1032 -165 -526 -145 -1002 -352 -1492 -651 -87 -53 -178
-108 -203 -123 -511 -305 -1151 -759 -1502 -1067 -64 -57 -120 -103 -123 -103
-3 0 -5 25 -5 55 0 138 -52 253 -169 373 -59 61 -89 83 -131 99 -61 23 -169
47 -176 40 -3 -2 14 -16 38 -30 108 -63 179 -150 203 -244 21 -85 37 -284 30
-361 -17 -174 -121 -442 -258 -672 -54 -90 -137 -211 -168 -246 -18 -19 -18
-27 -8 -99 9 -67 8 -90 -6 -150 -26 -107 -54 -154 -108 -181 -27 -14 -27 -14
-21 10 10 41 -11 66 -56 66 -27 0 -47 7 -60 20 -11 11 -20 17 -20 13 0 -4 -5
-2 -11 4 -9 9 -24 0 -62 -35 -27 -26 -54 -46 -61 -44 -31 9 -164 101 -217 150
-102 94 -124 165 -69 224 22 25 32 30 38 20 7 -10 17 -8 47 10 31 18 38 19 32
6 -5 -14 0 -16 27 -11 39 6 72 -9 81 -36 3 -10 15 -21 25 -24 15 -4 20 -14 20
-37 0 -24 4 -31 15 -26 11 4 15 -2 15 -21 0 -20 3 -23 13 -15 10 9 12 4 9 -23
-3 -22 0 -35 7 -35 6 0 11 6 12 13 0 6 5 -3 10 -22 10 -32 11 -33 30 -15 18
17 19 16 19 -9 0 -19 4 -25 15 -21 9 4 15 0 15 -9 0 -24 40 -47 80 -47 41 0
67 -16 72 -45 3 -20 4 -19 23 2 41 48 85 223 56 223 -14 0 -22 61 -10 76 18
22 -7 55 -41 52 -19 -1 -38 6 -56 22 -47 45 -49 58 -14 90 18 16 30 35 27 42
-6 19 50 93 117 154 45 41 55 54 39 54 -17 0 -89 -22 -148 -45 -27 -11 -12 4
44 44 l44 31 -44 -1 c-29 -1 -37 -3 -23 -7 18 -6 14 -13 -38 -61 l-59 -54 -21
21 c-29 29 -18 47 44 71 29 12 41 19 26 16 -14 -3 -33 -8 -42 -11 -30 -11 -19
56 30 181 6 16 3 15 -20 -7 -15 -14 -43 -34 -62 -43 -35 -16 -36 -18 -30 -58
15 -103 16 -122 6 -107 -5 8 -7 23 -4 32 3 9 0 25 -5 35 -5 10 -14 54 -20 98
-5 44 -19 141 -31 215 -24 147 -30 312 -18 565 7 170 6 167 -48 -130 -25 -137
-27 -171 -27 -390 1 -146 -2 -218 -7 -185 -9 68 -64 199 -74 175 -12 -33 -5
-102 19 -180 39 -126 29 -112 -26 35 -122 327 -133 365 -153 527 -37 294 -41
318 -44 283 -2 -19 -2 -123 1 -230 4 -194 18 -295 53 -383 16 -42 58 -311 51
-330 -2 -7 -7 7 -11 31 -7 36 -14 45 -47 62 -49 25 -68 26 -46 2 23 -25 21
-35 -2 -22 -11 5 -25 10 -31 10 -19 0 -1 -19 38 -40 20 -10 32 -19 27 -20 -9
0 -73 35 -245 132 -93 53 -99 46 -29 -30 37 -40 79 -97 95 -129 16 -32 33 -61
39 -65 12 -9 -145 -83 -214 -101 -53 -13 -58 -27 -12 -27 38 0 129 -26 157
-45 43 -28 18 -29 -43 -2 -32 14 -98 31 -148 38 l-90 13 65 19 c36 10 109 34
163 54 95 35 98 37 92 62 -4 14 -16 41 -27 59 -17 28 -25 32 -61 32 -59 0 -79
-15 -33 -24 20 -4 36 -10 36 -14 0 -4 -33 -17 -73 -30 -39 -13 -82 -31 -95
-40 -23 -17 -22 -18 20 -14 l43 3 -66 -36 c-37 -20 -91 -59 -120 -86 l-54 -49
52 20 53 20 -83 -83 c-62 -61 -93 -101 -120 -156 -21 -41 -35 -76 -33 -78 2
-3 21 14 41 36 47 51 58 52 41 3 -40 -111 -24 -287 35 -404 16 -32 31 -58 33
-58 1 0 1 35 -2 78 -2 42 -2 75 1 72 8 -8 74 -218 82 -263 4 -21 4 -37 1 -37
-12 0 -170 108 -239 163 -83 67 -355 315 -413 377 -199 212 -367 501 -480 825
l-38 110 0 175 c0 314 38 406 215 520 70 45 67 47 -34 24 -101 -23 -153 -52
-223 -125 -117 -124 -148 -185 -167 -336 l-12 -92 -80 70 c-430 380 -1167 890
-1914 1324 -690 400 -1619 689 -2291 711 l-155 5 140 -44z m2535 -1432 c143
-16 260 -37 375 -67 44 -11 87 -21 95 -23 75 -17 310 -110 454 -180 98 -47
334 -183 361 -207 5 -5 -42 15 -105 45 -474 224 -956 339 -1510 362 -170 7
-439 -6 -594 -30 -55 -8 -101 -13 -103 -11 -2 2 33 16 78 30 102 33 296 72
414 84 143 15 399 13 535 -3z m7395 -14 c124 -21 270 -58 340 -85 l40 -16 -35
5 c-237 33 -313 38 -555 38 -281 0 -457 -15 -685 -59 -69 -13 -136 -26 -150
-28 -199 -35 -586 -169 -803 -278 -55 -27 -96 -45 -93 -40 3 6 55 39 114 75
372 223 741 352 1157 403 162 19 515 12 670 -15z m-5635 -1018 c-190 -33 -475
-116 -697 -204 -224 -89 -630 -295 -655 -333 -4 -6 -8 -7 -8 -3 0 15 -252
-162 -345 -243 -25 -22 -48 -40 -51 -40 -13 0 123 154 203 230 348 332 816
541 1323 593 50 5 260 5 230 0z m3590 -18 c356 -58 704 -205 993 -417 59 -44
69 -49 85 -37 15 13 16 12 4 -3 -12 -15 -9 -21 25 -50 107 -93 200 -192 267
-288 9 -12 -24 10 -44 30 -22 22 -122 98 -200 152 -408 281 -942 512 -1420
614 l-115 24 155 -5 c85 -2 198 -11 250 -20z m-3495 -420 c-11 -177 -47 -330
-120 -520 -83 -214 -250 -521 -435 -795 -20 -30 -39 -59 -41 -65 -2 -5 -38
-62 -80 -125 -42 -63 -84 -130 -93 -148 -32 -61 -26 -27 8 55 35 83 122 257
358 723 238 470 341 744 380 1015 l12 90 9 -65 c4 -36 5 -110 2 -165z m3080
-20 c67 -280 182 -546 496 -1146 113 -218 244 -497 237 -505 -6 -5 -360 549
-444 696 -242 422 -344 734 -344 1049 0 70 3 131 8 135 4 4 10 -23 15 -61 4
-37 18 -113 32 -168z m-1247 45 c48 -15 57 -34 43 -90 -5 -19 -9 -27 -10 -18
-2 35 -198 82 -305 72 -60 -5 -31 16 51 38 74 20 150 19 221 -2z m-1553 -365
c55 -313 72 -432 86 -615 25 -336 -30 -677 -146 -897 -20 -37 -33 -59 -30 -49
15 51 46 203 62 311 14 93 17 180 17 390 -1 240 -4 301 -33 545 -34 282 -45
572 -26 650 9 35 9 34 17 -25 5 -33 29 -172 53 -310z m2541 80 c-3 -93 -17
-271 -31 -395 -34 -300 -46 -547 -34 -740 9 -143 45 -388 69 -469 30 -104 -42
39 -88 175 -103 302 -110 660 -21 1179 16 94 41 242 55 330 36 222 36 221 46
150 5 -33 7 -136 4 -230z m-1080 -50 c15 -32 18 -48 10 -54 -25 -19 -83 -31
-152 -31 -72 0 -72 0 -79 30 -4 17 -4 43 0 59 6 28 6 28 73 24 37 -3 78 0 92
5 35 15 33 16 56 -33z m93 -151 c-28 -30 -138 -64 -208 -64 l-59 0 -16 41 c-9
23 -16 42 -14 44 2 1 36 7 77 13 40 6 94 21 120 35 l46 24 37 -35 38 -36 -21
-22z m105 -85 c-49 -51 -174 -99 -260 -99 -37 0 -42 4 -63 40 l-22 40 29 0
c68 0 182 49 225 98 l19 21 50 -36 49 -36 -27 -28z m156 -55 c0 -21 -82 -86
-145 -115 -59 -27 -167 -59 -198 -59 -8 0 -29 19 -46 42 l-32 43 63 16 c96 24
154 53 200 102 l43 45 57 -32 c32 -17 58 -36 58 -42z m63 -34 c85 -60 82 -57
66 -87 -38 -71 -216 -158 -348 -170 l-58 -5 -23 36 c-12 21 -19 41 -14 45 5 4
41 17 80 29 39 12 98 39 130 60 57 37 114 93 114 113 0 14 9 11 53 -21z m148
-132 c66 -84 68 -93 29 -133 -63 -65 -183 -116 -317 -135 -107 -14 -125 -9
-151 46 -12 24 -22 46 -22 48 0 2 23 6 50 10 138 18 276 90 327 171 15 24 31
44 35 45 4 0 26 -24 49 -52z m99 -184 c27 -89 26 -115 -7 -146 -76 -70 -187
-108 -312 -108 -121 0 -158 12 -166 53 -4 17 -9 40 -11 50 -5 14 2 17 44 17
122 0 302 73 382 155 24 25 45 45 47 45 1 0 11 -30 23 -66z m28 -245 c-3 -73
-8 -103 -18 -110 -8 -5 -46 -19 -85 -32 -58 -18 -92 -22 -200 -21 -71 0 -149
6 -172 13 -45 12 -49 20 -37 78 l6 30 96 -5 c147 -7 267 30 354 109 24 21 47
38 52 39 4 0 7 -45 4 -101z m-29 -186 c-25 -79 -58 -132 -87 -140 -15 -5 -85
-8 -157 -7 -114 1 -140 4 -210 28 -44 15 -81 29 -83 31 -2 2 4 25 13 50 14 36
22 44 34 39 9 -4 73 -9 143 -12 134 -4 221 9 309 46 24 11 45 15 47 11 2 -5
-2 -26 -9 -46z m-495 -148 c117 -36 329 -40 410 -9 18 7 18 5 -4 -27 -13 -19
-43 -58 -68 -86 l-44 -53 -64 0 c-74 0 -194 23 -268 51 -82 31 -81 29 -52 88
15 28 30 51 34 51 4 0 29 -7 56 -15z m-55 -160 c70 -19 214 -37 268 -34 23 2
45 0 48 -3 3 -3 -23 -31 -59 -63 l-65 -57 -53 7 c-97 12 -226 58 -275 97 -20
16 34 81 61 73 12 -3 46 -12 75 -20z m-101 -110 c69 -29 178 -55 231 -55 28 0
32 -2 21 -15 -6 -8 -36 -30 -65 -50 -51 -34 -55 -34 -105 -25 -85 16 -220 86
-220 113 0 16 53 65 65 61 6 -1 38 -15 73 -29z m-136 -84 c44 -30 134 -64 201
-76 20 -4 37 -10 37 -14 -1 -12 -129 -81 -152 -81 -53 0 -208 92 -208 124 0 8
67 74 77 76 1 0 21 -13 45 -29z m-77 -133 c22 -14 63 -34 92 -44 l52 -20 -55
-33 c-51 -30 -57 -32 -92 -20 -44 14 -104 51 -150 90 l-32 29 47 34 48 35 25
-23 c14 -13 43 -35 65 -48z m-90 -105 c38 -18 76 -33 85 -33 18 -1 -3 -18 -67
-56 l-42 -25 -51 26 c-55 28 -130 91 -130 109 0 6 17 23 38 37 l37 27 30 -26
c16 -14 61 -40 100 -59z m-215 -30 c17 -16 62 -44 101 -64 l70 -36 -49 -32
c-27 -17 -56 -31 -65 -31 -19 0 -104 62 -134 98 l-22 27 31 32 c18 18 33 33
35 33 2 0 17 -12 33 -27z m-319 -389 c13 -14 43 -37 67 -51 l42 -25 -17 -29
c-11 -18 -26 -29 -39 -29 -32 0 -135 41 -141 56 -5 13 44 104 56 104 4 0 18
-12 32 -26z m-8 -146 c37 -7 66 -15 65 -18 -2 -3 -12 -27 -23 -53 -15 -34 -26
-47 -41 -47 -37 0 -125 31 -131 46 -3 9 0 34 6 56 11 34 16 39 34 34 12 -3 52
-12 90 -18z"/>
</g>
</svg>
